# xmcd
#
# Track frame offsets: 
#        150
#        17589
#        32953
#        48152
#        77067
#        91816
#        111847
#        132579
#        148135
#        167618
#        188020
#        215187
#        235822
#        263185
#        276724
#
# Disc length: 3977 seconds
#
# Revision: 2
# Processed by: cddbd v1.5.2PL0 Copyright (c) Steve Scherf et al.
# Submitted via: ExactAudioCopy v1.3
#
DISCID=dc0f870f
DTITLE=Ryan Bingham - American Love Song
DYEAR=2019
DGENRE=Country
TTITLE0=Jingle and Go
TTITLE1=Nothin' Holds Me Down
TTITLE2=Pontiac
TTITLE3=Lover Girl
TTITLE4=Beautiful and Kind
TTITLE5=Situation Station
TTITLE6=Got Damn Blues
TTITLE7=Time For My Mind
TTITLE8=What Would I've Become
TTITLE9=Wolves
TTITLE10=Blue
TTITLE11=Hot House
TTITLE12=Stones
TTITLE13=America
TTITLE14=Blues Lady
EXTD=
EXTT0=
EXTT1=
EXTT2=
EXTT3=
EXTT4=
EXTT5=
EXTT6=
EXTT7=
EXTT8=
EXTT9=
EXTT10=
EXTT11=
EXTT12=
EXTT13=
EXTT14=
PLAYORDER=
